<mxfile host="app.diagrams.net" modified="2023-11-16T15:07:53.782Z" agent="Mozilla/5.0 (Windows NT 10.0; Win64; x64; rv:109.0) Gecko/20100101 Firefox/119.0" etag="qJmDJVoJJE3zapM4cT17" version="22.1.2" type="google">
  <diagram id="C5RBs43oDa-KdzZeNtuy" name="Page-1">
    <mxGraphModel grid="1" page="1" gridSize="10" guides="1" tooltips="1" connect="1" arrows="1" fold="1" pageScale="1" pageWidth="827" pageHeight="1169" math="0" shadow="0">
      <root>
        <mxCell id="WIyWlLk6GJQsqaUBKTNV-0" />
        <mxCell id="WIyWlLk6GJQsqaUBKTNV-1" parent="WIyWlLk6GJQsqaUBKTNV-0" />
        <mxCell id="YxOox8aLp10tMVVLM6yT-1" value="Create a new mobile app" style="rounded=0;whiteSpace=wrap;html=1;" vertex="1" parent="WIyWlLk6GJQsqaUBKTNV-1">
          <mxGeometry x="360" y="320" width="200" height="120" as="geometry" />
        </mxCell>
        <mxCell id="YxOox8aLp10tMVVLM6yT-2" value="" style="endArrow=classic;html=1;rounded=0;entryX=0;entryY=0.5;entryDx=0;entryDy=0;" edge="1" parent="WIyWlLk6GJQsqaUBKTNV-1" target="YxOox8aLp10tMVVLM6yT-1">
          <mxGeometry width="50" height="50" relative="1" as="geometry">
            <mxPoint x="240" y="380" as="sourcePoint" />
            <mxPoint x="300" y="380" as="targetPoint" />
          </mxGeometry>
        </mxCell>
        <mxCell id="YxOox8aLp10tMVVLM6yT-3" value="Tasks" style="text;html=1;align=center;verticalAlign=middle;resizable=0;points=[];autosize=1;strokeColor=none;fillColor=none;" vertex="1" parent="WIyWlLk6GJQsqaUBKTNV-1">
          <mxGeometry x="260" y="338" width="60" height="30" as="geometry" />
        </mxCell>
        <mxCell id="YxOox8aLp10tMVVLM6yT-4" value="" style="endArrow=classic;html=1;rounded=0;entryX=0.5;entryY=0;entryDx=0;entryDy=0;" edge="1" parent="WIyWlLk6GJQsqaUBKTNV-1" target="YxOox8aLp10tMVVLM6yT-1">
          <mxGeometry width="50" height="50" relative="1" as="geometry">
            <mxPoint x="460" y="190" as="sourcePoint" />
            <mxPoint x="440" y="230" as="targetPoint" />
          </mxGeometry>
        </mxCell>
        <mxCell id="YxOox8aLp10tMVVLM6yT-7" value="Developer&#39;s team " style="text;html=1;align=center;verticalAlign=middle;resizable=0;points=[];autosize=1;strokeColor=none;fillColor=none;" vertex="1" parent="WIyWlLk6GJQsqaUBKTNV-1">
          <mxGeometry x="470" y="220" width="120" height="30" as="geometry" />
        </mxCell>
        <mxCell id="YxOox8aLp10tMVVLM6yT-8" value="" style="endArrow=classic;html=1;rounded=0;exitX=1;exitY=0.5;exitDx=0;exitDy=0;" edge="1" parent="WIyWlLk6GJQsqaUBKTNV-1" source="YxOox8aLp10tMVVLM6yT-1">
          <mxGeometry width="50" height="50" relative="1" as="geometry">
            <mxPoint x="550" y="380" as="sourcePoint" />
            <mxPoint x="700" y="380" as="targetPoint" />
          </mxGeometry>
        </mxCell>
        <mxCell id="YxOox8aLp10tMVVLM6yT-9" value="Applicattion" style="text;html=1;align=center;verticalAlign=middle;resizable=0;points=[];autosize=1;strokeColor=none;fillColor=none;" vertex="1" parent="WIyWlLk6GJQsqaUBKTNV-1">
          <mxGeometry x="560" y="330" width="90" height="30" as="geometry" />
        </mxCell>
        <mxCell id="YxOox8aLp10tMVVLM6yT-10" value="" style="endArrow=classic;html=1;rounded=0;entryX=0.5;entryY=1;entryDx=0;entryDy=0;" edge="1" parent="WIyWlLk6GJQsqaUBKTNV-1" target="YxOox8aLp10tMVVLM6yT-1">
          <mxGeometry width="50" height="50" relative="1" as="geometry">
            <mxPoint x="460" y="590" as="sourcePoint" />
            <mxPoint x="450" y="530" as="targetPoint" />
          </mxGeometry>
        </mxCell>
        <mxCell id="YxOox8aLp10tMVVLM6yT-11" value="&lt;div&gt;Entreprise&lt;/div&gt;" style="text;html=1;align=center;verticalAlign=middle;resizable=0;points=[];autosize=1;strokeColor=none;fillColor=none;" vertex="1" parent="WIyWlLk6GJQsqaUBKTNV-1">
          <mxGeometry x="475" y="498" width="80" height="30" as="geometry" />
        </mxCell>
      </root>
    </mxGraphModel>
  </diagram>
</mxfile>
